<svg width="33" height="33" viewBox="0 0 33 33" fill="none" xmlns="http://www.w3.org/2000/svg">
<circle cx="16.1" cy="16.1" r="15.6" fill="url(#paint0_linear_1_466)" fill-opacity="0.05" stroke="url(#paint1_linear_1_466)"/>
<path d="M15.6743 13.8393C14.1962 13.8393 12.9899 15.0456 12.9899 16.5238C12.9899 18.0019 14.1962 19.2082 15.6743 19.2082C17.1525 19.2082 18.3588 18.0019 18.3588 16.5238C18.3588 15.0456 17.1525 13.8393 15.6743 13.8393ZM23.7257 16.5238C23.7257 15.4121 23.7358 14.3105 23.6734 13.2009C23.611 11.912 23.3169 10.7681 22.3744 9.82565C21.4299 8.88115 20.2881 8.58914 18.9992 8.52671C17.8876 8.46428 16.786 8.47435 15.6763 8.47435C14.5647 8.47435 13.4631 8.46428 12.3535 8.52671C11.0646 8.58914 9.92073 8.88317 8.97824 9.82565C8.03374 10.7702 7.74173 11.912 7.6793 13.2009C7.61687 14.3125 7.62694 15.4141 7.62694 16.5238C7.62694 17.6334 7.61687 18.737 7.6793 19.8466C7.74173 21.1355 8.03576 22.2794 8.97824 23.2219C9.92274 24.1664 11.0646 24.4584 12.3535 24.5208C13.4651 24.5832 14.5667 24.5732 15.6763 24.5732C16.788 24.5732 17.8896 24.5832 18.9992 24.5208C20.2881 24.4584 21.432 24.1643 22.3744 23.2219C23.3189 22.2774 23.611 21.1355 23.6734 19.8466C23.7378 18.737 23.7257 17.6354 23.7257 16.5238ZM15.6743 20.6542C13.3886 20.6542 11.5439 18.8095 11.5439 16.5238C11.5439 14.238 13.3886 12.3933 15.6743 12.3933C17.9601 12.3933 19.8048 14.238 19.8048 16.5238C19.8048 18.8095 17.9601 20.6542 15.6743 20.6542ZM19.9739 13.1888C19.4402 13.1888 19.0093 12.7578 19.0093 12.2242C19.0093 11.6905 19.4402 11.2595 19.9739 11.2595C20.5076 11.2595 20.9386 11.6905 20.9386 12.2242C20.9387 12.3509 20.9139 12.4764 20.8655 12.5935C20.817 12.7106 20.746 12.817 20.6564 12.9066C20.5668 12.9962 20.4604 13.0673 20.3433 13.1157C20.2262 13.1641 20.1006 13.189 19.9739 13.1888Z" fill="white" fill-opacity="0.8"/>
<defs>
<linearGradient id="paint0_linear_1_466" x1="16.1" y1="0" x2="16.1" y2="32.2" gradientUnits="userSpaceOnUse">
<stop stop-color="#FEFEFF" stop-opacity="0.29"/>
<stop offset="1" stop-color="white" stop-opacity="0.4"/>
</linearGradient>
<linearGradient id="paint1_linear_1_466" x1="-1.54448" y1="2.15937" x2="35.5021" y2="6.78831" gradientUnits="userSpaceOnUse">
<stop stop-color="white" stop-opacity="0.08"/>
<stop offset="1" stop-color="white" stop-opacity="0.07"/>
</linearGradient>
</defs>
</svg>
