<svg width="33" height="33" viewBox="0 0 33 33" fill="none" xmlns="http://www.w3.org/2000/svg">
<circle cx="16.1" cy="16.1" r="15.6" fill="url(#paint0_linear_1_459)" fill-opacity="0.05" stroke="url(#paint1_linear_1_459)"/>
<path d="M9.32117 13.7054C9.32117 12.9727 9.44925 12.2805 9.70165 11.6344C9.94279 11.0069 10.3011 10.431 10.7574 9.93736C11.2128 9.45018 11.7339 9.02891 12.3057 8.68573C12.8923 8.33082 13.5274 8.06307 14.1911 7.89087C14.8628 7.71449 15.5545 7.62554 16.2489 7.62622C17.3216 7.62622 18.3199 7.85319 19.2457 8.30525C20.1593 8.74906 20.937 9.43016 21.4975 10.2773C22.0757 11.1391 22.363 12.1138 22.363 13.2006C22.363 13.8523 22.2989 14.4899 22.168 15.1134C22.0395 15.7365 21.8352 16.3415 21.5596 16.915C21.297 17.4702 20.9536 17.9833 20.5406 18.4379C20.1256 18.8852 19.6229 19.2423 19.0639 19.487C18.457 19.753 17.8005 19.8869 17.138 19.8797C16.6774 19.8797 16.2178 19.7714 15.7639 19.5539C15.31 19.3373 14.9841 19.0397 14.7882 18.6583C14.7195 18.9229 14.6253 19.3053 14.5 19.8053C14.3795 20.3045 14.2985 20.6266 14.2627 20.7726C14.225 20.9176 14.1553 21.1596 14.0536 21.4949C13.9846 21.7429 13.8962 21.9851 13.789 22.2191L13.465 22.8539C13.3249 23.1263 13.1683 23.3898 12.996 23.6431C12.8255 23.8899 12.6146 24.1846 12.3631 24.5237L12.2228 24.5736L12.1296 24.4719C12.0288 23.4048 11.977 22.7663 11.977 22.5554C11.977 21.9309 12.0514 21.2303 12.1983 20.4524C12.3424 19.6754 12.5703 18.6988 12.8764 17.5244C13.1825 16.3509 13.3576 15.6606 13.4047 15.4562C13.1891 15.0164 13.0798 14.4419 13.0798 13.7356C13.0798 13.1714 13.2559 12.6431 13.6091 12.1458C13.9632 11.6505 14.4106 11.4028 14.953 11.4028C15.3683 11.4028 15.6904 11.5403 15.9212 11.8162C16.1529 12.0912 16.2659 12.4378 16.2659 12.8606C16.2659 13.3089 16.1171 13.9578 15.8176 14.8064C15.5181 15.6559 15.3693 16.2897 15.3693 16.7107C15.3693 17.1373 15.5219 17.4942 15.827 17.7739C16.1281 18.0538 16.5264 18.2054 16.9374 18.1968C17.3103 18.1968 17.6559 18.112 17.9771 17.9416C18.2932 17.7761 18.5668 17.5398 18.7767 17.2512C19.2336 16.6243 19.5594 15.9116 19.7344 15.1558C19.8249 14.7583 19.8946 14.3807 19.9379 14.0256C19.984 13.6687 20.0038 13.3315 20.0038 13.0113C20.0038 11.8369 19.6309 10.9215 18.8897 10.266C18.1447 9.61056 17.1747 9.2847 15.9814 9.2847C14.6243 9.2847 13.4895 9.72357 12.5807 10.6041C11.6709 11.4819 11.2132 12.5979 11.2132 13.9512C11.2132 14.2498 11.2584 14.538 11.3441 14.8167C11.4279 15.0946 11.5193 15.3159 11.6182 15.4797C11.7161 15.6408 11.8084 15.7981 11.8922 15.9431C11.977 16.0881 12.0213 16.1917 12.0213 16.2539C12.0213 16.4441 11.9713 16.6918 11.8706 16.9979C11.766 17.304 11.6427 17.4565 11.4939 17.4565C11.4797 17.4565 11.4213 17.4462 11.3196 17.4245C10.9674 17.3194 10.6492 17.1228 10.3976 16.8547C10.1306 16.577 9.91981 16.2501 9.77699 15.8922C9.63457 15.5356 9.52364 15.1673 9.44548 14.7913C9.36103 14.4356 9.3193 14.071 9.32117 13.7054Z" fill="white" fill-opacity="0.8"/>
<defs>
<linearGradient id="paint0_linear_1_459" x1="16.1" y1="0" x2="16.1" y2="32.2" gradientUnits="userSpaceOnUse">
<stop stop-color="#FEFEFF" stop-opacity="0.29"/>
<stop offset="1" stop-color="white" stop-opacity="0.4"/>
</linearGradient>
<linearGradient id="paint1_linear_1_459" x1="-1.54448" y1="2.15937" x2="35.5021" y2="6.78831" gradientUnits="userSpaceOnUse">
<stop stop-color="white" stop-opacity="0.08"/>
<stop offset="1" stop-color="white" stop-opacity="0.07"/>
</linearGradient>
</defs>
</svg>
