<svg width="33" height="33" viewBox="0 0 33 33" fill="none" xmlns="http://www.w3.org/2000/svg">
<circle cx="16.1" cy="16.1" r="15.6" fill="url(#paint0_linear_1_463)" fill-opacity="0.05" stroke="url(#paint1_linear_1_463)"/>
<path d="M24.5737 10.9568C23.9505 11.2256 23.2723 11.4191 22.5737 11.4945C23.299 11.0636 23.8421 10.3828 24.1012 9.57996C23.4206 9.98483 22.675 10.2687 21.8975 10.4191C21.5725 10.0717 21.1795 9.79491 20.7429 9.60604C20.3063 9.41718 19.8355 9.32025 19.3598 9.3213C17.4351 9.3213 15.8872 10.8814 15.8872 12.7959C15.8872 13.0647 15.9198 13.3336 15.9727 13.5923C13.0908 13.4415 10.5205 12.0647 8.8117 9.95675C8.50034 10.4886 8.33718 11.0941 8.33919 11.7103C8.33919 12.9161 8.95223 13.9792 9.88708 14.6045C9.33616 14.5828 8.79814 14.4314 8.31678 14.1625V14.2053C8.31678 15.8937 9.51029 17.2929 11.101 17.6147C10.8023 17.6923 10.495 17.732 10.1865 17.7329C9.9604 17.7329 9.74655 17.7105 9.53066 17.6799C9.97058 19.0567 11.2517 20.0567 12.7772 20.0893C11.5836 21.0242 10.0887 21.5741 8.46546 21.5741C8.17421 21.5741 7.90537 21.5639 7.62634 21.5313C9.16609 22.5191 10.993 23.0894 12.9605 23.0894C19.3475 23.0894 22.8425 17.798 22.8425 13.2053C22.8425 13.0546 22.8425 12.9039 22.8323 12.7531C23.5085 12.2582 24.1012 11.6452 24.5737 10.9568Z" fill="white" fill-opacity="0.8"/>
<defs>
<linearGradient id="paint0_linear_1_463" x1="16.1" y1="0" x2="16.1" y2="32.2" gradientUnits="userSpaceOnUse">
<stop stop-color="#FEFEFF" stop-opacity="0.29"/>
<stop offset="1" stop-color="white" stop-opacity="0.4"/>
</linearGradient>
<linearGradient id="paint1_linear_1_463" x1="-1.54448" y1="2.15937" x2="35.5021" y2="6.78831" gradientUnits="userSpaceOnUse">
<stop stop-color="white" stop-opacity="0.08"/>
<stop offset="1" stop-color="white" stop-opacity="0.07"/>
</linearGradient>
</defs>
</svg>
